<?xml version="1.0" encoding="UTF-8" standalone="no"?>
<!DOCTYPE svg PUBLIC "-//W3C//DTD SVG 1.1//EN"
 "http://www.w3.org/Graphics/SVG/1.1/DTD/svg11.dtd">
<!-- Generated by graphviz version 2.40.1 (20161225.0304)
 -->
<!-- Title: G Pages: 1 -->
<svg width="597pt" height="381pt"
 viewBox="0.00 0.00 597.04 381.00" xmlns="http://www.w3.org/2000/svg" xmlns:xlink="http://www.w3.org/1999/xlink">
<g id="graph0" class="graph" transform="scale(1 1) rotate(0) translate(4 377)">
<title>G</title>
<polygon fill="#ffffff" stroke="transparent" points="-4,4 -4,-377 593.038,-377 593.038,4 -4,4"/>
<g id="clust1" class="cluster">
<title>cluster_Global</title>
<path fill="none" stroke="#c0c0c0" d="M337.6069,-8C337.6069,-8 569.038,-8 569.038,-8 575.038,-8 581.038,-14 581.038,-20 581.038,-20 581.038,-353 581.038,-353 581.038,-359 575.038,-365 569.038,-365 569.038,-365 337.6069,-365 337.6069,-365 331.6069,-365 325.6069,-359 325.6069,-353 325.6069,-353 325.6069,-20 325.6069,-20 325.6069,-14 331.6069,-8 337.6069,-8"/>
<text text-anchor="middle" x="453.3224" y="-352.2" font-family="Times,serif" font-size="11.00" fill="#c0c0c0">Global</text>
</g>
<g id="clust2" class="cluster">
<title>cluster_\Dungeonworx</title>
<path fill="none" stroke="#c0c0c0" d="M345.6069,-16C345.6069,-16 561.038,-16 561.038,-16 567.038,-16 573.038,-22 573.038,-28 573.038,-28 573.038,-326 573.038,-326 573.038,-332 567.038,-338 561.038,-338 561.038,-338 345.6069,-338 345.6069,-338 339.6069,-338 333.6069,-332 333.6069,-326 333.6069,-326 333.6069,-28 333.6069,-28 333.6069,-22 339.6069,-16 345.6069,-16"/>
<text text-anchor="middle" x="453.3224" y="-325.2" font-family="Times,serif" font-size="11.00" fill="#c0c0c0">Dungeonworx</text>
</g>
<g id="clust3" class="cluster">
<title>cluster_\Dungeonworx\DeviceDetector</title>
<path fill="none" stroke="#c0c0c0" d="M353.6069,-24C353.6069,-24 553.038,-24 553.038,-24 559.038,-24 565.038,-30 565.038,-36 565.038,-36 565.038,-299 565.038,-299 565.038,-305 559.038,-311 553.038,-311 553.038,-311 353.6069,-311 353.6069,-311 347.6069,-311 341.6069,-305 341.6069,-299 341.6069,-299 341.6069,-36 341.6069,-36 341.6069,-30 347.6069,-24 353.6069,-24"/>
<text text-anchor="middle" x="453.3224" y="-298.2" font-family="Times,serif" font-size="11.00" fill="#c0c0c0">DeviceDetector</text>
</g>
<!-- \\Dungeonworx\\DeviceDetector\\LaravelCacheBridge -->
<g id="node1" class="node">
<title>\\Dungeonworx\\DeviceDetector\\LaravelCacheBridge</title>
<polygon fill="none" stroke="#000000" points="520.6419,-284 386.003,-284 386.003,-248 520.6419,-248 520.6419,-284"/>
<text text-anchor="middle" x="453.3224" y="-262.7" font-family="Courier,monospace" font-size="11.00" fill="#000000">LaravelCacheBridge</text>
</g>
<!-- \\DeviceDetector\\Cache\\Cache -->
<g id="node6" class="node">
<title>\\DeviceDetector\\Cache\\Cache</title>
<ellipse fill="none" stroke="#000000" cx="138.8034" cy="-266" rx="117.3052" ry="18"/>
<text text-anchor="middle" x="138.8034" y="-261.8" font-family="Times,serif" font-size="14.00" fill="#c0c0c0">\DeviceDetector\Cache\Cache</text>
</g>
<!-- \\Dungeonworx\\DeviceDetector\\LaravelCacheBridge&#45;&gt;\\DeviceDetector\\Cache\\Cache -->
<g id="edge1" class="edge">
<title>\\Dungeonworx\\DeviceDetector\\LaravelCacheBridge&#45;&gt;\\DeviceDetector\\Cache\\Cache</title>
<path fill="none" stroke="#000000" stroke-dasharray="1,5" d="M385.8502,-266C350.9159,-266 307.0915,-266 266.09,-266"/>
<polygon fill="none" stroke="#000000" points="266.0122,-262.5001 256.0122,-266 266.0121,-269.5001 266.0122,-262.5001"/>
</g>
<!-- \\Dungeonworx\\DeviceDetector\\DeviceDetectorMiddleware -->
<g id="node2" class="node">
<title>\\Dungeonworx\\DeviceDetector\\DeviceDetectorMiddleware</title>
<polygon fill="none" stroke="#000000" points="540.7487,-230 365.8961,-230 365.8961,-194 540.7487,-194 540.7487,-230"/>
<text text-anchor="middle" x="453.3224" y="-208.7" font-family="Courier,monospace" font-size="11.00" fill="#000000">DeviceDetectorMiddleware</text>
</g>
<!-- \\Dungeonworx\\DeviceDetector\\DeviceDetectorServiceProvider -->
<g id="node3" class="node">
<title>\\Dungeonworx\\DeviceDetector\\DeviceDetectorServiceProvider</title>
<polygon fill="none" stroke="#000000" points="557.254,-176 349.3908,-176 349.3908,-140 557.254,-140 557.254,-176"/>
<text text-anchor="middle" x="453.3224" y="-154.7" font-family="Courier,monospace" font-size="11.00" fill="#000000">DeviceDetectorServiceProvider</text>
</g>
<!-- \\Illuminate\\Support\\ServiceProvider -->
<g id="node7" class="node">
<title>\\Illuminate\\Support\\ServiceProvider</title>
<ellipse fill="none" stroke="#000000" cx="138.8034" cy="-158" rx="138.6071" ry="18"/>
<text text-anchor="middle" x="138.8034" y="-153.8" font-family="Times,serif" font-size="14.00" fill="#c0c0c0">\Illuminate\Support\ServiceProvider</text>
</g>
<!-- \\Dungeonworx\\DeviceDetector\\DeviceDetectorServiceProvider&#45;&gt;\\Illuminate\\Support\\ServiceProvider -->
<g id="edge2" class="edge">
<title>\\Dungeonworx\\DeviceDetector\\DeviceDetectorServiceProvider&#45;&gt;\\Illuminate\\Support\\ServiceProvider</title>
<path fill="none" stroke="#000000" d="M349.4655,-158C329.7063,-158 308.6707,-158 287.8285,-158"/>
<polygon fill="none" stroke="#000000" points="287.6189,-154.5001 277.6188,-158 287.6188,-161.5001 287.6189,-154.5001"/>
</g>
<!-- \\Dungeonworx\\DeviceDetector\\DeviceDetector -->
<g id="node4" class="node">
<title>\\Dungeonworx\\DeviceDetector\\DeviceDetector</title>
<polygon fill="none" stroke="#000000" points="507.7383,-122 398.9066,-122 398.9066,-86 507.7383,-86 507.7383,-122"/>
<text text-anchor="middle" x="453.3224" y="-100.7" font-family="Courier,monospace" font-size="11.00" fill="#000000">DeviceDetector</text>
</g>
<!-- \\Illuminate\\Support\\Facades\\Facade -->
<g id="node8" class="node">
<title>\\Illuminate\\Support\\Facades\\Facade</title>
<ellipse fill="none" stroke="#000000" cx="138.8034" cy="-104" rx="137.6208" ry="18"/>
<text text-anchor="middle" x="138.8034" y="-99.8" font-family="Times,serif" font-size="14.00" fill="#c0c0c0">\Illuminate\Support\Facades\Facade</text>
</g>
<!-- \\Dungeonworx\\DeviceDetector\\DeviceDetector&#45;&gt;\\Illuminate\\Support\\Facades\\Facade -->
<g id="edge3" class="edge">
<title>\\Dungeonworx\\DeviceDetector\\DeviceDetector&#45;&gt;\\Illuminate\\Support\\Facades\\Facade</title>
<path fill="none" stroke="#000000" d="M398.8965,-104C367.6954,-104 326.8772,-104 286.8567,-104"/>
<polygon fill="none" stroke="#000000" points="286.7056,-100.5001 276.7056,-104 286.7055,-107.5001 286.7056,-100.5001"/>
</g>
<!-- \\Dungeonworx\\DeviceDetector\\FacadeBackend -->
<g id="node5" class="node">
<title>\\Dungeonworx\\DeviceDetector\\FacadeBackend</title>
<polygon fill="none" stroke="#000000" points="504.1366,-68 402.5083,-68 402.5083,-32 504.1366,-32 504.1366,-68"/>
<text text-anchor="middle" x="453.3224" y="-46.7" font-family="Courier,monospace" font-size="11.00" fill="#000000">FacadeBackend</text>
</g>
</g>
</svg>
